HIERARCHY
ROOT joint_Root
{
	OFFSET 0.0 0.0 0.0
	CHANNELS 6 Xposition Yposition Zposition Zrotation Xrotation Yrotation 
	JOINT Hips
	{
		OFFSET -0.726466 93.3139 -2.00062
		CHANNELS 6 Xposition Yposition Zposition Zrotation Xrotation Yrotation 
		JOINT Spine
		{
			OFFSET 15.7357 0.0 0.0
			CHANNELS 6 Xposition Yposition Zposition Zrotation Xrotation Yrotation 
			JOINT Chest
			{
				OFFSET 8.98455 -0.406207 0.0
				CHANNELS 6 Xposition Yposition Zposition Zrotation Xrotation Yrotation 
				JOINT Neck
				{
					OFFSET 16.3773 0.0 0.0
					CHANNELS 6 Xposition Yposition Zposition Zrotation Xrotation Yrotation 
					JOINT Head
					{
						OFFSET 6.45672 0.0 0.0
						CHANNELS 6 Xposition Yposition Zposition Zrotation Xrotation Yrotation 
						End Site
						{
							OFFSET 0.0 0.0 0.0
						}
					}
				}
				JOINT Shoulder_L
				{
					OFFSET 12.9942 -0.242716 4.98039
					CHANNELS 6 Xposition Yposition Zposition Zrotation Xrotation Yrotation 
					JOINT UpperArm_L
					{
						OFFSET 5.34809 0.0 0.0
						CHANNELS 6 Xposition Yposition Zposition Zrotation Xrotation Yrotation 
						JOINT LowerArm_L
						{
							OFFSET 24.3286 1.87007e-05 0.0
							CHANNELS 6 Xposition Yposition Zposition Zrotation Xrotation Yrotation 
							JOINT Hand_L
							{
								OFFSET 22.2916 0.0 0.0
								CHANNELS 6 Xposition Yposition Zposition Zrotation Xrotation Yrotation 
								End Site
								{
									OFFSET 0.0 0.0 0.0
								}
							}
						}
					}
				}
				JOINT Shoulder_R
				{
					OFFSET 12.9945 -0.242716 -4.98039
					CHANNELS 6 Xposition Yposition Zposition Zrotation Xrotation Yrotation 
					JOINT UpperArm_R
					{
						OFFSET -5.34813 0.0 0.0
						CHANNELS 6 Xposition Yposition Zposition Zrotation Xrotation Yrotation 
						JOINT LowerArm_R
						{
							OFFSET -24.3289 0.000322201 0.0
							CHANNELS 6 Xposition Yposition Zposition Zrotation Xrotation Yrotation 
							JOINT Hand_R
							{
								OFFSET -22.2915 -0.000108084 0.0
								CHANNELS 6 Xposition Yposition Zposition Zrotation Xrotation Yrotation 
								End Site
								{
									OFFSET 0.0 0.0 0.0
								}
							}
						}
					}
				}
			}
		}
		JOINT UpperLeg_L
		{
			OFFSET -2.19248 -6.46944 0.0
			CHANNELS 6 Xposition Yposition Zposition Zrotation Xrotation Yrotation 
			JOINT LowerLeg_L
			{
				OFFSET 39.0811 0.0 -1.23785e-05
				CHANNELS 6 Xposition Yposition Zposition Zrotation Xrotation Yrotation 
				JOINT Foot_L
				{
					OFFSET 40.9854 0.0 -1.26872e-05
					CHANNELS 6 Xposition Yposition Zposition Zrotation Xrotation Yrotation 
					JOINT Toes_L
					{
						OFFSET 11.7543 0.0 0.0
						CHANNELS 6 Xposition Yposition Zposition Zrotation Xrotation Yrotation 
						End Site
						{
							OFFSET 0.0 0.0 0.0
						}
					}
				}
			}
		}
		JOINT UpperLeg_R
		{
			OFFSET -2.19251 6.46944 0.0
			CHANNELS 6 Xposition Yposition Zposition Zrotation Xrotation Yrotation 
			JOINT LowerLeg_R
			{
				OFFSET -39.0811 -0.00228153 -0.0401928
				CHANNELS 6 Xposition Yposition Zposition Zrotation Xrotation Yrotation 
				JOINT Foot_R
				{
					OFFSET -40.9854 0.0 0.0
					CHANNELS 6 Xposition Yposition Zposition Zrotation Xrotation Yrotation 
					JOINT Toes_R
					{
						OFFSET -11.7543 0.0 0.0
						CHANNELS 6 Xposition Yposition Zposition Zrotation Xrotation Yrotation 
						End Site
						{
							OFFSET 0.0 0.0 0.0
						}
					}
				}
			}
		}
	}
}
MOTION
Frames:	7
Frame Time:	0.0333333
0.000000 0.000000 0.000000 0.000000 0.000000 -0.000000 -0.056161 92.269000 -0.645392 88.161300 0.458311 5.212560 15.735700 0.000005 -0.000001 83.460400 85.163400 -83.003400 8.984550 -0.406207 -0.000000 1.849290 -1.124620 0.931324 16.377300 -0.000001 -0.000001 1.552170 -2.843660 0.622455 6.456720 -0.000001 -0.000000 2.508850 -3.272300 -0.692574 12.994200 -0.242716 4.980390 -90.134200 0.433926 -72.818500 5.348090 -0.000007 -0.000001 -68.055400 38.695600 -15.125000 24.328600 0.000019 0.000005 3.221290 6.891430 -25.125800 22.291600 -0.000001 0.000005 -1.739140 5.392600 -2.689470 12.994500 -0.242716 -4.980390 88.165600 5.968410 -72.880100 -5.348130 -0.000001 -0.000004 -64.129300 42.953300 -17.048600 -24.328900 0.000322 -0.000009 4.963380 13.414200 -20.520500 -22.291500 -0.000108 -0.000004 0.324243 5.307230 -0.092075 -2.192480 -6.469440 -0.000000 -175.674000 -8.218970 -1.931240 39.081100 -0.000007 -0.000012 -0.101903 0.236504 23.310000 40.985400 -0.000006 -0.000013 0.504828 4.663940 -66.412500 11.754300 -0.000000 0.000003 -0.000061 -0.000669 -16.603500 -2.192510 6.469440 -0.000001 178.773000 15.881200 -178.782000 -39.081100 -0.002282 -0.040193 -0.045199 0.136136 19.617100 -40.985400 0.000008 0.000006 2.630190 7.566640 -65.847800 -11.754300 -0.000006 -0.000006 -0.008090 -0.088764 -20.187700
0.000000 0.000000 0.000000 0.000000 0.000000 -0.000000 -0.072829 92.259800 -0.783285 88.196200 0.512103 5.472210 15.735700 0.000005 -0.000001 83.607400 85.068600 -83.171000 8.984550 -0.406207 -0.000000 2.040190 -1.119190 0.891975 16.377300 -0.000001 -0.000001 1.687000 -2.853020 0.670605 6.456720 -0.000001 -0.000000 2.459640 -3.238400 -0.590825 12.994200 -0.242716 4.980390 -90.220500 0.708200 -72.704800 5.348090 -0.000007 -0.000001 -65.021100 36.370300 -17.584600 24.328600 0.000019 0.000005 4.307700 8.060090 -28.243000 22.291600 -0.000001 0.000005 -2.774840 5.372820 -2.074180 12.994500 -0.242716 -4.980390 88.110700 6.053980 -72.631700 -5.348130 -0.000001 -0.000004 -60.665100 41.900900 -19.843500 -24.328900 0.000322 -0.000009 7.997370 17.379200 -25.187700 -22.291500 -0.000108 -0.000004 -7.858180 5.219130 2.292720 -2.192480 -6.469440 -0.000000 -175.678000 -8.209580 -1.826540 39.081100 -0.000007 -0.000012 -0.100767 0.232658 23.418000 40.985400 -0.000006 -0.000013 0.513599 4.689390 -66.366200 11.754300 -0.000000 0.000003 -0.000044 -0.000509 -16.597400 -2.192510 6.469440 -0.000001 178.706000 15.863100 -178.712000 -39.081100 -0.002282 -0.040193 -0.046555 0.138216 19.842700 -40.985400 0.000008 0.000006 2.785130 7.468780 -65.902100 -11.754300 -0.000006 -0.000006 -0.008769 -0.094197 -20.409700
0.000000 0.000000 0.000000 0.000000 0.000000 -0.000000 -0.084170 92.261300 -1.004790 88.207700 0.559529 5.718420 15.735700 0.000005 -0.000001 83.577000 85.001500 -83.144300 8.984550 -0.406207 -0.000000 2.173160 -1.138680 0.886148 16.377300 -0.000001 -0.000001 2.087850 -2.805950 0.731054 6.456720 -0.000001 -0.000000 2.496000 -3.197950 -0.614520 12.994200 -0.242716 4.980390 -90.245700 0.785098 -72.619900 5.348090 -0.000007 -0.000001 -61.188600 31.898100 -21.382000 24.328600 0.000019 0.000005 5.235910 8.301450 -32.404400 22.291600 -0.000001 0.000005 -1.058410 5.391600 -2.658750 12.994500 -0.242716 -4.980390 88.129700 5.866020 -72.280800 -5.348130 -0.000001 -0.000004 -56.660100 38.246200 -23.937200 -24.328900 0.000322 -0.000009 10.102400 17.683500 -30.397800 -22.291500 -0.000108 -0.000004 -14.511000 5.107740 4.959220 -2.192480 -6.469440 -0.000000 -175.665000 -8.195890 -1.793610 39.081100 -0.000007 -0.000012 -0.100983 0.232092 23.513900 40.985400 -0.000006 -0.000013 0.532523 4.751150 -66.251800 11.754300 -0.000000 0.000003 -0.000052 -0.000590 -16.600400 -2.192510 6.469440 -0.000001 178.688000 15.816000 -178.703000 -39.081100 -0.002282 -0.040193 -0.047184 0.138838 19.989900 -40.985400 0.000008 0.000006 2.736950 7.385840 -65.803800 -11.754300 -0.000006 -0.000006 -0.008500 -0.092065 -20.322600
0.000000 0.000000 0.000000 0.000000 0.000000 -0.000000 -0.113890 92.260900 -1.241260 88.203900 0.539276 6.005470 15.735700 0.000005 -0.000001 83.582900 84.995800 -83.147300 8.984550 -0.406207 -0.000000 2.184520 -1.139000 0.892128 16.377300 -0.000001 -0.000001 2.658490 -2.697890 0.791447 6.456720 -0.000001 -0.000000 3.056300 -3.109320 -0.705326 12.994200 -0.242716 4.980390 -90.214200 0.686719 -72.677100 5.348090 -0.000007 -0.000001 -57.432400 25.498000 -25.678600 24.328600 0.000019 0.000005 6.081590 7.798560 -38.140000 22.291600 -0.000001 0.000005 0.859499 5.411120 -3.296920 12.994500 -0.242716 -4.980390 88.208300 5.560060 -72.107300 -5.348130 -0.000001 -0.000004 -53.318900 32.050200 -28.218300 -24.328900 0.000322 -0.000009 11.492000 16.315800 -35.896300 -22.291500 -0.000108 -0.000004 -14.397800 5.050900 6.217240 -2.192480 -6.469440 -0.000000 -175.631000 -8.186520 -1.724520 39.081100 -0.000007 -0.000012 -0.099317 0.227031 23.627600 40.985400 -0.000006 -0.000013 0.528173 4.730470 -66.144700 11.754300 -0.000000 0.000003 -0.000047 -0.000539 -16.598500 -2.192510 6.469440 -0.000001 178.654000 15.830400 -178.639000 -39.081100 -0.002282 -0.040193 -0.049933 0.145354 20.121500 -40.985400 0.000008 0.000006 2.673070 7.410320 -65.697300 -11.754300 -0.000006 -0.000006 -0.008577 -0.092675 -20.347500
0.000000 0.000000 0.000000 0.000000 0.000000 -0.000000 -0.129148 92.262600 -1.443060 88.176000 0.420461 6.281950 15.735700 0.000005 -0.000001 83.710600 85.028600 -83.266300 8.984550 -0.406207 -0.000000 2.121670 -1.110350 0.908271 16.377300 -0.000001 -0.000001 3.265840 -2.563170 0.773558 6.456720 -0.000001 -0.000000 3.924690 -2.968990 -0.708200 12.994200 -0.242716 4.980390 -90.109600 0.352824 -72.748100 5.348090 -0.000007 -0.000001 -54.158000 17.942200 -30.454300 24.328600 0.000019 0.000005 6.799380 6.855380 -44.967200 22.291600 -0.000001 0.000005 3.052100 5.434960 -4.099650 12.994500 -0.242716 -4.980390 88.267400 5.326990 -71.953900 -5.348130 -0.000001 -0.000004 -49.956500 24.964300 -33.156400 -24.328900 0.000322 -0.000009 13.446400 15.187100 -42.385100 -22.291500 -0.000108 -0.000004 -9.404360 5.085460 5.455490 -2.192480 -6.469440 -0.000000 -175.535000 -8.379450 -1.624390 39.081100 -0.000007 -0.000012 -0.098387 0.223876 23.724300 40.985400 -0.000006 -0.000013 0.550280 4.853790 -66.053600 11.754300 -0.000000 0.000003 -0.000053 -0.000596 -16.600700 -2.192510 6.469440 -0.000001 178.609000 15.789300 -178.519000 -39.081100 -0.002282 -0.040193 -0.057147 0.164890 20.138700 -40.985400 0.000008 0.000006 2.364990 7.568870 -65.503200 -11.754300 -0.000006 -0.000006 -0.008195 -0.089616 -20.222500
0.000000 0.000000 0.000000 0.000000 0.000000 -0.000000 -0.133475 92.265800 -1.614700 88.165700 0.273718 6.582690 15.735700 0.000005 -0.000001 83.791800 85.055500 -83.344400 8.984550 -0.406207 -0.000000 2.069660 -1.090910 0.913763 16.377300 -0.000001 -0.000001 3.736650 -2.412600 0.806661 6.456720 -0.000001 -0.000000 4.851800 -2.780260 -0.778414 12.994200 -0.242716 4.980390 -89.949400 -0.163381 -72.783800 5.348090 -0.000007 -0.000001 -52.145500 9.489010 -35.335800 24.328600 0.000019 0.000005 7.894550 6.075430 -52.646700 22.291600 -0.000001 0.000005 6.111690 5.457370 -4.895960 12.994500 -0.242716 -4.980390 88.364900 5.012740 -71.907900 -5.348130 -0.000001 -0.000004 -47.669300 16.885300 -38.151700 -24.328900 0.000322 -0.000009 16.442800 14.368800 -49.939100 -22.291500 -0.000108 -0.000004 -2.427150 5.128810 4.458250 -2.192480 -6.469440 -0.000000 -175.510000 -8.343670 -1.437890 39.081100 -0.000007 -0.000012 -0.097398 0.221153 23.769200 40.985400 -0.000006 -0.000013 0.518815 4.661190 -65.974600 11.754300 -0.000000 0.000003 -0.000046 -0.000525 -16.598000 -2.192510 6.469440 -0.000001 178.518000 15.864900 -178.334000 -39.081100 -0.002282 -0.040193 -0.060488 0.173833 20.156800 -40.985400 0.000008 0.000006 2.211130 7.833600 -65.366100 -11.754300 -0.000006 -0.000006 -0.008382 -0.091123 -20.284100
0.000000 0.000000 0.000000 0.000000 0.000000 -0.000000 -0.130059 92.264700 -1.739150 88.133000 0.068076 6.683200 15.735700 0.000005 -0.000001 83.722700 85.116300 -83.245300 8.984550 -0.406207 -0.000000 1.947960 -1.091530 0.972521 16.377300 -0.000001 -0.000001 3.994490 -2.233260 0.788401 6.456720 -0.000001 -0.000000 5.592990 -2.500960 -0.882105 12.994200 -0.242716 4.980390 -89.667900 -1.076030 -72.843400 5.348090 -0.000007 -0.000001 -52.160800 0.479622 -40.280200 24.328600 0.000019 0.000005 8.470630 4.842860 -60.455200 22.291600 -0.000001 0.000005 9.307620 5.484030 -5.893210 12.994500 -0.242716 -4.980390 88.569500 4.421110 -72.050300 -5.348130 -0.000001 -0.000004 -47.162300 8.152160 -43.279200 -24.328900 0.000322 -0.000009 18.149200 12.120900 -57.363600 -22.291500 -0.000108 -0.000004 4.285250 5.182420 3.193010 -2.192480 -6.469440 -0.000000 -175.470000 -8.407150 -1.436650 39.081100 -0.000007 -0.000012 -0.098349 0.222500 23.846300 40.985400 -0.000006 -0.000013 0.499816 4.539470 -65.939800 11.754300 -0.000000 0.000003 -0.000052 -0.000588 -16.600400 -2.192510 6.469440 -0.000001 178.528000 15.778900 -178.355000 -39.081100 -0.002282 -0.040193 -0.064343 0.184005 20.189900 -40.985400 0.000008 0.000006 2.074350 7.963500 -65.252400 -11.754300 -0.000006 -0.000006 -0.008387 -0.091159 -20.285500
